<svg width="57" height="43" viewBox="0 0 57 43" fill="none" xmlns="http://www.w3.org/2000/svg">
<path d="M35.3397 4.10186C34.9894 9.20252 34.983 14.2808 35.2489 19.3894C35.287 20.1223 35.3556 20.856 35.3397 21.5904C35.8018 21.3285 36.3014 21.0728 36.734 20.7661C38.2808 19.9834 39.8694 19.3169 41.6379 19.3639C36.5734 18.1777 35.3298 12.3548 39.5408 9.81206C41.9234 8.37339 45.2377 9.29811 46.6275 11.6753C48.508 14.8916 46.6761 18.4455 43.2018 19.3639C46.477 19.6608 48.7968 20.7706 51.106 23.0083C51.5647 23.0146 52.0321 22.9894 52.4892 23.0301C54.7474 23.2314 56.9119 25.2167 56.8607 27.5696C56.83 28.9844 55.9683 32.027 55.6448 33.5672L55.0878 36.2426C54.7647 37.8704 54.7222 38.5059 53.5152 39.7494C52.0176 40.7692 50.6821 40.4062 48.9967 40.2454C43.4538 39.717 39.2977 39.8345 33.8127 40.426C31.0759 39.743 30.9376 38.282 30.6916 35.8827L30.3619 32.547C30.2942 31.8734 30.2455 31.1914 30.1195 30.5257C30.0851 29.9605 30.0116 29.3963 29.9857 28.8315C29.0795 28.815 28.1792 28.8794 27.2751 28.9343C22.1497 29.2457 17.0536 29.8175 11.9751 30.579L7.65067 31.2398C6.79007 31.3752 5.90424 31.5693 5.03528 31.6117C2.67424 32.2269 2.73068 32.0349 2.22773 29.8166C0.495109 22.1749 0.18792 13.4077 1.30278 5.69003C1.65776 3.23261 1.42425 3.75388 3.98594 3.1221C13.1699 0.857391 23.6325 -0.0246747 33.0216 1.48818C35.3233 1.85911 35.4593 1.71158 35.3397 4.10186ZM48.9426 23.4005C45.324 20.454 38.9203 20.1009 35.5688 23.6255L35.7955 25.687C35.8364 26.0503 35.8577 26.4312 35.9305 26.7892L35.9316 26.8279C35.9855 28.1968 36.5787 28.8226 34.8484 28.7818L34.1668 28.7624H32.1763C31.5166 28.7604 31.8203 29.2306 31.8198 29.741C31.9709 30.568 32.0271 31.4207 32.11 32.2573L32.457 35.5541C32.6048 36.9525 32.4339 38.6646 34.3529 38.4979C36.364 38.2836 38.3879 38.1011 40.4111 38.0566C41.8293 38.0253 43.2587 38.1116 44.6739 38.0501C44.8703 37.27 44.9827 36.4522 45.1217 35.6594L43.0262 34.8394C42.4784 34.6294 40.3846 33.9364 41.9066 33.1265C42.853 33.2646 44.3946 34.0342 45.34 34.3976C45.4208 34.0209 45.5088 33.6461 45.5987 33.2714C44.819 33.0145 42.7998 32.3084 42.1303 31.9199C41.6781 31.6576 41.7844 30.9511 42.2694 30.7808C42.7404 30.6153 45.3187 31.8999 45.8241 32.1406L46.114 31.0476C45.0278 30.5131 43.8378 30.1676 42.739 29.6528C41.9837 29.299 42.2445 28.6242 42.9173 28.413C43.7697 28.7187 45.6138 29.4479 46.3289 29.8978C46.9712 27.3992 46.9801 25.2165 49.3045 23.6255C49.1863 23.5456 49.0659 23.4721 48.9426 23.4005ZM54.6442 26.3728C53.7502 24.8684 51.7732 24.4068 50.2803 25.2986C48.4413 26.3972 47.8021 31.8661 47.2439 33.9933C46.8806 35.3782 46.3945 36.7507 46.114 38.1543C46.7049 38.1841 47.2892 38.2475 47.8784 38.2913C48.5462 38.3326 49.2101 38.3867 49.876 38.4503C52.7803 38.7275 52.6739 38.34 53.2117 35.9878C53.5631 34.4509 53.8801 32.9081 54.206 31.3658C54.5326 29.8201 55.3857 27.8755 54.6442 26.3728ZM22.5881 2.6608C17.1424 2.85647 11.7707 3.3462 6.43037 4.50502C5.47819 4.71167 4.15392 4.94141 3.25976 5.27447C2.11818 12.6106 2.36857 20.2317 3.64223 27.5401C3.77938 28.327 3.91206 29.1302 4.13694 29.8978C6.93401 29.4782 10.1371 28.7793 12.9196 28.5467C19.8459 27.4513 27.0432 26.9262 34.0419 26.9325C33.1593 19.7927 32.7534 10.7493 33.4887 3.4881C30.3146 2.75807 25.8085 2.65643 22.5881 2.6608ZM41.9046 10.6781C40.0314 10.6661 38.5053 12.1797 38.5021 14.053C38.4988 15.9264 40.0194 17.4453 41.8928 17.4398C43.7539 17.4345 45.2606 15.926 45.264 14.065C45.2672 12.2039 43.7658 10.69 41.9046 10.6781Z" fill="#212121"/>
<path d="M35.3394 21.5906C35.3553 20.8562 35.2868 20.1225 35.2486 19.3895C34.9827 14.281 34.9892 9.20271 35.3394 4.10205L35.3646 4.19046C37.3981 4.77747 36.4678 6.78443 36.4234 8.71664C36.341 12.2894 36.3345 16.2083 36.6199 19.7333C36.6468 20.0669 36.6511 20.4431 36.7338 20.7663C36.3012 21.073 35.8016 21.3286 35.3394 21.5906Z" fill="#00B5A1"/>
<path d="M25.0614 5.99482C25.1816 5.48129 25.2409 4.99071 25.8367 4.86754C27.2111 4.81939 27.8461 4.58206 28.1718 5.99482L28.5569 6.13897C28.9978 5.86588 29.3566 5.53155 29.87 5.83941C30.4135 6.16516 31.1025 6.725 31.2626 7.36677C31.2296 7.63986 31.1412 7.85369 31.0125 8.0937C31.0405 8.25489 31.0765 8.41452 31.1113 8.57444C32.4862 8.95944 32.5352 9.7165 32.3288 11.2082C32.0268 11.6127 31.5747 11.7145 31.1113 11.8319C31.0912 12.0446 31.0573 12.2475 31.0125 12.4565C31.4661 12.9646 31.6365 13.3106 31.165 13.8892C30.446 14.771 29.7788 15.6307 28.7025 14.7292C28.5706 14.7801 28.4346 14.8232 28.301 14.8697C28.0565 15.4395 28.1184 15.8783 27.445 16.16C24.0138 16.1833 25.8238 15.4008 24.6638 14.7549L24.6165 14.7292C24.351 14.915 24.1208 15.0407 23.8072 15.1287C22.9168 14.9254 22.1958 14.1218 21.8483 13.2954C21.9038 12.8812 22.0874 12.6083 22.3116 12.2667C21.8976 10.8825 20.6629 12.8433 20.9575 9.59629C21.0751 8.30092 21.7861 8.81923 22.1877 8.48392C22.5484 7.80808 21.3524 7.48459 22.4303 6.53622C22.9392 6.08858 23.3535 5.63699 24.0636 5.68048C24.2652 5.81084 24.4291 5.98933 24.6165 6.13897C24.766 6.09533 24.9135 6.04367 25.0614 5.99482ZM26.1977 5.99482C25.9408 6.92503 25.4342 7.05792 24.6165 7.36677C24.3018 7.22558 24.0394 7.01358 23.8072 6.75977C23.5612 6.99894 23.3139 7.23613 23.0821 7.48924C23.9726 8.60963 23.3825 9.51689 21.9973 9.61543C22.0298 9.97974 22.0243 10.3297 21.9973 10.694C23.2879 10.7589 23.0631 11.4304 23.49 12.4565C23.3664 12.707 23.2341 12.957 23.0821 13.1916C23.3024 13.4883 23.5403 13.7759 23.8072 14.0322C24.0596 13.7762 24.2619 13.6624 24.6165 13.5821C25.6052 14.0094 25.9225 13.954 26.1977 15.0293C26.4831 15.0518 26.7611 15.0428 27.0469 15.0293C27.2073 14.8619 27.3252 14.2783 27.445 14.0322C28.3795 13.624 28.6494 13.3053 29.4494 14.0322C29.7246 13.7565 29.9964 13.48 30.2584 13.1916C30.0748 12.933 29.8082 12.6528 29.8579 12.3146C30.0424 11.0616 30.2171 10.909 31.2626 10.5765V9.77563C30.9828 9.71172 30.4529 9.67638 30.2909 9.42455C29.7702 8.61512 29.5523 8.21575 30.1193 7.48924C29.8937 7.28977 29.6529 7.09579 29.4494 6.87365C29.193 7.03005 28.7676 7.36381 28.4591 7.2954C27.522 7.0879 27.2239 6.83269 27.0469 5.99482H26.1977Z" fill="#212121"/>
<path d="M24.6165 7.36706C25.4342 7.05821 25.9409 6.92533 26.1978 5.99512H27.0469C27.224 6.83298 27.522 7.0882 28.4591 7.29569C28.7677 7.36411 29.1931 7.03034 29.4494 6.87394C29.653 7.09608 29.8937 7.29006 30.1193 7.48953C29.5523 8.21605 29.7702 8.61541 30.2909 9.42484C30.453 9.67668 30.9828 9.71201 31.2627 9.77592V10.5768C30.2172 10.9093 30.0425 11.0619 29.8579 12.3149C29.8082 12.6531 30.0749 12.9333 30.2584 13.1918C29.9965 13.4803 29.7246 13.7568 29.4494 14.0325C28.6494 13.3056 28.3796 13.6243 27.445 14.0325C27.3252 14.2786 27.2074 14.8622 27.0469 15.0296C26.7611 15.0431 26.4831 15.0521 26.1978 15.0296C25.9226 13.9543 25.6053 14.0097 24.6165 13.5823C24.2619 13.6627 24.0596 13.7765 23.8072 14.0325C23.5403 13.7762 23.3024 13.4886 23.0821 13.1918C23.2341 12.9573 23.3664 12.7073 23.49 12.4567C23.0631 11.4307 23.2879 10.7592 21.9973 10.6943C22.0243 10.33 22.0298 9.98004 21.9973 9.61572C23.3825 9.51718 23.9726 8.60992 23.0821 7.48953C23.3139 7.23643 23.5613 6.99923 23.8072 6.76006C24.0395 7.01387 24.3019 7.22587 24.6165 7.36706ZM26.2085 7.9804C24.8354 8.19873 23.9004 9.49016 24.1215 10.8627C24.3426 12.2353 25.6358 13.1678 27.0079 12.9441C28.3763 12.721 29.3057 11.4321 29.0853 10.0632C28.8648 8.69452 27.5777 7.76263 26.2085 7.9804Z" fill="#00B5A1"/>
<path d="M21.9972 16.8796C20.9653 18.0115 16.8805 21.9503 16.0652 21.888C15.0832 21.8129 15.5766 18.3439 15.5947 17.5588L15.7173 11.5126C15.7417 10.5165 15.3686 7.8627 16.1554 7.36705C17.4225 7.22614 16.8452 9.97115 16.8211 10.8628L16.6726 18.3121C16.6609 18.9503 16.6337 19.5872 16.6774 20.2247C17.9905 19.3241 20.1964 17.2908 21.2013 16.1603C20.8593 16.2119 20.2575 16.3583 20.123 15.9036C19.8409 14.9498 21.9125 14.6817 22.5879 14.5711C23.3513 14.9274 23.0862 15.9778 23.082 16.6741C23.0865 16.9952 23.1711 17.6856 22.9631 17.9285C22.2171 18.7988 21.9916 17.4176 21.9972 16.8796Z" fill="#212121"/>
<path d="M27.0079 12.944C25.6358 13.1677 24.3425 12.2352 24.1215 10.8626C23.9003 9.49006 24.8353 8.19864 26.2084 7.9803C27.5777 7.76253 28.8648 8.69443 29.0852 10.0631C29.3057 11.432 28.3763 12.7209 27.0079 12.944ZM26.2925 9.12631C25.5496 9.30072 25.0866 10.0416 25.2551 10.7857C25.4236 11.5298 26.1607 11.9989 26.9061 11.8363C27.66 11.6719 28.1356 10.9246 27.9652 10.172C27.7948 9.4194 27.0436 8.94993 26.2925 9.12631Z" fill="#212121"/>
<path d="M5.76087 11.6564C4.8892 11.8653 4.27838 11.3115 4.79235 10.7612C5.25225 10.2689 11.9824 9.63377 12.9197 9.61561C13.784 9.38798 15.1351 10.5384 12.5082 10.7415C10.2454 10.9163 7.98876 11.2264 5.76087 11.6564Z" fill="#212121"/>
<path d="M5.54843 15.2935C4.75824 15.4138 4.39429 14.8592 4.83134 14.3911C5.31625 13.8718 11.7972 13.2785 12.9193 13.1918C13.807 13.1222 14.3736 13.6983 13.5049 14.2536C10.8415 14.5119 8.16628 14.7079 5.54843 15.2935Z" fill="#212121"/>
<path d="M5.76076 18.9227C4.85127 19.0643 4.44905 18.4887 4.84008 18.0574C5.28462 17.5672 11.9446 16.8781 12.9196 16.8793C13.7712 16.685 14.0346 17.3478 13.5052 17.9232C12.8649 18.0591 12.0137 18.0679 11.3373 18.1348C9.5681 18.3098 7.49286 18.5025 5.76076 18.9227Z" fill="#212121"/>
<path d="M5.76032 22.5767C4.50741 22.8082 4.59677 21.7149 5.1682 21.5336C6.97621 20.9601 10.7987 20.6652 12.7156 20.4693C13.6973 20.283 14.8492 21.4193 12.2219 21.655C10.2446 21.8323 7.71512 22.1278 5.76032 22.5767Z" fill="#212121"/>
<path d="M48.9425 23.4004C49.0658 23.472 49.1861 23.5455 49.3044 23.6254C46.98 25.2164 46.9711 27.3991 46.3288 29.8977C45.6137 29.4478 43.7696 28.7186 42.9172 28.4129C42.2443 28.624 41.9836 29.2989 42.7389 29.6527C43.8377 30.1675 45.0276 30.513 46.1138 31.0475L45.824 32.1405C45.3186 31.8998 42.7403 30.6152 42.2692 30.7806C41.7843 30.951 41.678 31.6575 42.1302 31.9198C42.7997 32.3083 44.8189 33.0144 45.5986 33.2713C45.5087 33.646 45.4207 34.0208 45.3399 34.3975C44.3945 34.0341 42.8529 33.2645 41.9065 33.1264C40.3845 33.9363 42.4783 34.6293 43.026 34.8393L45.1215 35.6593C44.9826 36.4521 44.8701 37.2699 44.6738 38.05C43.2586 38.1115 41.8292 38.0252 40.4109 38.0565C38.3878 38.101 36.3639 38.2836 34.3527 38.4978C34.3326 35.6588 33.274 31.2757 34.1666 28.7623L34.8483 28.7817C36.5786 28.8225 35.9854 28.1967 35.9315 26.8278L35.9304 26.7891C37.821 23.2416 42.4576 21.6585 46.2874 22.6458C47.144 22.8667 48.058 23.3646 48.9425 23.4004Z" fill="#00B5A1"/>
<path d="M54.6443 26.3731C55.3857 27.8759 54.5326 29.8205 54.2061 31.3661C53.8802 32.9084 53.5632 34.4512 53.2118 35.9882C52.6739 38.3403 52.7803 38.7278 49.8761 38.4507C49.2101 38.387 48.5462 38.333 47.8784 38.2916C47.9589 37.7726 48.1476 37.2368 48.2707 36.723L49.2483 32.7192C49.8675 30.2373 50.0132 26.3654 53.4498 26.3516C53.8348 26.3501 54.2213 26.3971 54.6058 26.3757L54.6443 26.3731Z" fill="#00B5A1"/>
<path d="M31.8196 29.7413C31.8201 29.2309 31.5164 28.7607 32.1761 28.7627C32.0791 29.4191 32.1779 29.2585 31.8196 29.7413Z" fill="#00B5A1"/>
<path d="M30.1193 30.5259C29.2342 30.5231 28.3603 30.6011 27.4783 30.6665C22.0069 31.0724 16.8047 31.8804 11.3811 32.513C9.62737 32.7175 7.75146 33.0279 5.9923 33.0544C5.05047 33.0686 5.02996 32.4042 5.03514 31.6119C5.9041 31.5696 6.78993 31.3754 7.65053 31.24L11.975 30.5792C17.0534 29.8177 22.1496 29.2459 27.2749 28.9345C28.1791 28.8796 29.0793 28.8153 29.9856 28.8317C30.0115 29.3965 30.085 29.9607 30.1193 30.5259Z" fill="#00B5A1"/>
<path d="M33.8127 40.4262C39.2977 39.8347 43.4538 39.7171 48.9967 40.2456C50.6821 40.4063 52.0176 40.7694 53.5153 39.7495C52.9798 42.0819 52.2076 42.1716 49.9753 41.9927C46.288 41.6972 42.3009 41.5419 38.6058 41.8459C35.5089 42.1005 35.9201 42.4928 33.8127 40.4262Z" fill="#00B5A1"/>
</svg>
