<svg width="181" height="268" viewBox="0 0 181 268" fill="none" xmlns="http://www.w3.org/2000/svg">
<g clip-path="url(#clip0_8_2)">
<path d="M179.14 206.625H0V208.693H179.14V206.625Z" fill="black"/>
<path d="M39.9012 249.856V267.286H38.3101L38.2611 250.25C38.2611 244.464 35.1523 240.698 30.4278 240.698C24.9689 240.698 21.1991 244.957 21.1501 251.161V267.311H19.5589V250.274C19.5589 244.415 16.499 240.722 11.7256 240.722C6.26668 240.722 2.49687 244.981 2.44791 251.185V267.335H0.832275V239.738H2.12968L2.37447 245.351C4.08802 241.535 7.61304 239.196 11.9948 239.196C16.3766 239.196 19.6079 241.929 20.734 246.262C22.2761 241.904 25.997 239.196 30.697 239.196C36.2294 239.196 39.9012 243.504 39.9012 249.905" fill="black"/>
<path d="M38.5304 267.064H39.7054V249.856C39.7054 243.578 36.0825 239.344 30.6971 239.344C26.1194 239.344 22.472 241.929 20.9298 246.286L20.7095 246.926L20.5382 246.286C19.4121 241.953 16.2298 239.368 11.9949 239.368C7.75995 239.368 4.25941 241.633 2.57034 245.4L2.22763 246.188L1.93388 239.91H1.02814V267.089H2.25211V251.161C2.27659 244.883 6.19328 240.501 11.7256 240.501C16.6215 240.501 19.7793 244.341 19.7793 250.274V267.114H20.9788V251.185C21.0277 244.908 24.9199 240.525 30.4523 240.525C35.3237 240.525 38.4815 244.366 38.4815 250.299L38.5304 267.138V267.064ZM40.1216 267.483H38.1143L38.0653 250.225C38.0653 244.538 35.0789 240.87 30.4523 240.87C25.1403 240.87 21.4194 245.08 21.3704 251.136V267.483H19.3631V250.225C19.3631 244.538 16.3767 240.87 11.7256 240.87C6.41359 240.87 2.69274 245.08 2.64378 251.136V267.483H0.636475V239.467H2.32555L2.54586 244.489C4.43077 240.993 7.90683 238.925 11.9949 238.925C16.0829 238.925 19.4611 241.387 20.7585 245.548C22.472 241.387 26.1439 238.925 30.6971 238.925C36.3273 238.925 40.1216 243.332 40.1216 249.856V267.483Z" fill="black"/>
<path d="M73.903 253.475C73.903 246.188 68.5176 240.747 61.2717 240.747C54.0258 240.747 48.6404 246.163 48.6404 253.475C48.6404 260.787 54.0503 266.227 61.2717 266.227C68.4931 266.227 73.903 260.787 73.903 253.475ZM47.0002 253.475C47.0002 245.228 53.1445 239.147 61.2717 239.147C69.3988 239.147 75.5431 245.277 75.5431 253.475C75.5431 261.673 69.4478 267.828 61.2717 267.828C53.0956 267.828 47.0002 261.698 47.0002 253.475Z" fill="black"/>
<path d="M61.2718 240.919C54.0749 240.919 48.8363 246.188 48.8363 253.45C48.8363 260.713 54.1728 265.981 61.2718 265.981C68.3708 265.981 73.7073 260.59 73.7073 253.45C73.7073 246.311 68.3708 240.919 61.2718 240.919ZM61.2718 266.4C53.9525 266.4 48.4446 260.836 48.4446 253.45C48.4446 246.065 53.9525 240.501 61.2718 240.501C68.5911 240.501 74.0989 246.065 74.0989 253.45C74.0989 260.836 68.5911 266.4 61.2718 266.4ZM61.2718 239.319C53.2426 239.319 47.1962 245.4 47.1962 253.45C47.1962 261.501 53.2426 267.581 61.2718 267.581C69.301 267.581 75.3474 261.501 75.3474 253.45C75.3474 245.4 69.301 239.319 61.2718 239.319ZM61.2718 268C52.9978 268 46.78 261.747 46.78 253.45C46.78 245.154 52.9978 238.901 61.2718 238.901C69.5458 238.901 75.7635 245.154 75.7635 253.45C75.7635 261.747 69.5458 268 61.2718 268Z" fill="black"/>
<path d="M107.171 253.475C107.171 246.114 101.932 240.747 94.7595 240.747C87.5871 240.747 82.324 246.212 82.324 253.475C82.324 260.737 87.6605 266.203 94.7595 266.203C101.859 266.203 107.171 260.811 107.171 253.475ZM108.713 229.915V267.261H107.342L107.122 260.22C104.894 264.8 100.341 267.803 94.6616 267.803C86.6324 267.803 80.6594 261.624 80.6594 253.45C80.6594 245.277 86.6324 239.122 94.6616 239.122C100.292 239.122 104.821 242.076 107.073 246.606V229.89H108.713V229.915Z" fill="black"/>
<path d="M94.7594 240.919C87.7828 240.919 82.5442 246.311 82.5442 253.45C82.5442 260.59 87.8072 265.981 94.7594 265.981C101.711 265.981 106.95 260.713 106.95 253.45C106.95 246.188 101.809 240.919 94.7594 240.919ZM94.7594 266.4C87.5624 266.4 82.128 260.836 82.128 253.45C82.128 246.065 87.5624 240.501 94.7594 240.501C101.956 240.501 107.366 245.942 107.366 253.45C107.366 260.959 102.054 266.4 94.7594 266.4ZM94.6614 239.319C86.8036 239.319 80.8796 245.4 80.8796 253.45C80.8796 261.501 86.8036 267.581 94.6614 267.581C100.047 267.581 104.649 264.8 106.926 260.122L107.293 259.383L107.538 267.04H108.492V230.087H107.268V247.468L106.877 246.68C104.576 242.052 99.9979 239.295 94.637 239.295M94.637 267.975C86.5343 267.975 80.439 261.722 80.439 253.426C80.439 245.129 86.5343 238.876 94.637 238.876C99.8755 238.876 104.38 241.436 106.852 245.745V229.644H108.884V267.409H107.121L106.926 260.959C104.478 265.366 99.9245 267.951 94.6614 267.951" fill="black"/>
<path d="M130.058 240.698C123.425 240.698 118.382 245.622 117.941 252.416H141.955C141.539 245.425 136.521 240.698 130.058 240.698ZM143.522 253.967H117.892C118.137 261.033 123.253 266.203 130.034 266.203C134.881 266.203 138.749 263.667 140.927 259.408H142.665C140.07 264.873 135.64 267.828 130.034 267.828C122.201 267.828 116.277 261.648 116.277 253.45C116.277 245.252 122.201 239.147 130.034 239.147C137.867 239.147 143.522 245.326 143.522 253.303C143.522 253.524 143.522 253.77 143.522 253.992" fill="black"/>
<path d="M118.162 252.219H141.735C141.246 245.548 136.472 240.919 130.059 240.919C123.645 240.919 118.7 245.671 118.162 252.219ZM142.176 252.638H117.721V252.416C118.186 245.523 123.376 240.501 130.059 240.501C136.742 240.501 141.735 245.4 142.151 252.416V252.638H142.176ZM130.083 239.344C122.348 239.344 116.522 245.4 116.522 253.45C116.522 261.501 122.348 267.631 130.083 267.631C135.542 267.631 139.801 264.873 142.396 259.63H141.123C138.822 264.012 134.906 266.424 130.108 266.424C123.204 266.424 117.99 261.205 117.746 253.992V253.77H143.375C143.375 253.598 143.375 253.426 143.375 253.278C143.375 245.326 137.672 239.344 130.083 239.344ZM130.083 268.025C122.127 268.025 116.105 261.747 116.105 253.45C116.105 245.154 122.103 238.95 130.083 238.95C138.063 238.95 143.792 245.129 143.792 253.303C143.792 253.524 143.792 253.795 143.767 254.017V254.213H118.162C118.504 261.082 123.498 266.03 130.108 266.03C134.808 266.03 138.602 263.667 140.83 259.334L140.879 259.211H143.057L142.91 259.507C140.291 264.997 135.738 268.025 130.083 268.025Z" fill="black"/>
<path d="M152.578 229.915H150.939V267.261H152.578V229.915Z" fill="black"/>
<path d="M151.135 230.112H152.357V267.064H151.135V230.112ZM150.719 267.458H152.748V229.693H150.719V267.458Z" fill="black"/>
<path d="M159.997 259.753H161.588C162.029 263.889 165.284 266.252 170.474 266.252C175.664 266.252 179.189 263.766 179.189 259.95C179.189 255.174 174.709 254.337 170.18 253.549C165.431 252.736 160.535 251.875 160.535 246.459C160.535 242.076 164.477 239.098 170.278 239.098C176.08 239.098 179.825 242.052 180.094 246.828H178.528C178.258 242.938 175.223 240.624 170.254 240.624C165.284 240.624 162.127 242.963 162.127 246.434C162.127 250.57 166.092 251.235 170.572 251.998C175.37 252.81 180.829 253.795 180.829 259.9C180.829 264.652 176.692 267.803 170.474 267.803C164.256 267.803 160.437 264.75 160.021 259.753" fill="black"/>
<path d="M160.217 259.95C160.731 264.75 164.55 267.581 170.449 267.581C176.349 267.581 180.608 264.504 180.608 259.9C180.608 253.869 175.247 252.983 170.547 252.195C166.117 251.456 161.931 250.742 161.931 246.434C161.931 242.84 165.284 240.427 170.254 240.427C175.223 240.427 178.356 242.741 178.723 246.631H179.874C179.507 242.126 175.859 239.319 170.278 239.319C164.697 239.319 160.756 242.2 160.756 246.459C160.756 251.727 165.578 252.539 170.254 253.352C174.537 254.09 179.433 254.903 179.433 259.95C179.433 263.913 175.933 266.449 170.523 266.449C165.113 266.449 161.955 264.086 161.441 259.95H160.241H160.217ZM170.449 268C164.207 268 160.241 264.923 159.776 259.753V259.531H161.759V259.728C162.2 263.741 165.358 266.055 170.474 266.055C175.59 266.055 178.968 263.667 178.968 259.95C178.968 255.272 174.488 254.509 170.131 253.77C165.309 252.933 160.315 252.072 160.315 246.483C160.315 241.978 164.305 238.925 170.254 238.925C176.202 238.925 179.996 241.953 180.266 246.828V247.049H178.307V246.852C178.038 243.037 175.1 240.821 170.229 240.821C165.358 240.821 162.322 243.061 162.322 246.409C162.322 250.373 166.141 251.013 170.572 251.752C175.223 252.539 181 253.5 181 259.876C181 264.726 176.765 267.975 170.449 267.975" fill="black"/>
<path d="M128.614 97.7858C131.576 97.7858 134.44 97.7858 137.304 97.7858C139.899 97.7858 142.347 97.3673 144.673 96.0625C146.998 94.7577 148.981 93.1328 150.768 91.1387C153.485 88.1106 155.419 84.6147 156.937 80.8727C159.458 74.6441 160.633 68.1202 160.707 61.3992C160.78 54.309 160.756 47.2188 160.707 40.1286C160.707 38.036 160.584 35.9188 160.388 33.8262C160.021 29.641 159.14 25.5297 157.745 21.5907C156.227 17.2578 154.244 13.1464 151.16 9.67518C150.327 8.71505 149.422 7.82877 148.491 6.96711C145.627 4.3329 142.323 2.65883 138.381 2.58497C135.371 2.51112 132.384 2.58497 129.373 2.58497C129.128 2.58497 128.884 2.63421 128.614 2.65883V97.7858ZM128.639 173.07H137.745V175.532H101.051V173.095H110.132V2.58497H101.075V0H102.128C114.22 0 126.338 0 138.455 0C142.102 0 145.701 0.344663 149.201 1.28018C151.698 1.94488 154.22 2.73268 156.521 3.88977C159.262 5.26842 161.931 6.86864 164.379 8.71505C167.977 11.4231 170.963 14.8205 173.289 18.7103C177.206 25.2589 179.164 32.3491 179.14 40.0055C179.14 46.7757 179.14 53.5458 179.14 60.2914C179.14 66.7169 177.793 72.8223 174.905 78.5831C173.558 81.2666 171.967 83.7285 170.058 86.018C167.585 88.9969 164.746 91.508 161.49 93.6252C158.014 95.8901 154.318 97.4165 150.376 98.6474C146.068 99.9768 141.711 100.297 137.28 100.322C134.759 100.322 132.237 100.322 129.74 100.322H128.639V173.045V173.07Z" fill="black"/>
<path d="M50.4763 173.07H59.5581V175.532H22.8392V173.07H31.8965V2.56035H22.8147V0.0738564H89.3495V35.0571H87.0239C87.0239 33.9001 87.0729 32.743 87.0239 31.6105C86.7057 24.5449 85.4572 17.7009 82.4218 11.2508C81.051 8.37039 79.2885 5.71156 76.5957 3.91439C75.5187 3.17582 74.0744 2.63421 72.777 2.60959C65.4332 2.4865 58.0894 2.56035 50.7456 2.56035C50.6477 2.56035 50.5742 2.60959 50.4274 2.63421V86.3381C50.7211 86.3627 50.9904 86.4119 51.2597 86.4119C55.3967 86.4119 59.5581 86.4119 63.6951 86.4119C65.8493 86.4119 67.4405 85.501 68.7379 83.7531C71.6509 79.8387 72.5811 75.2842 73.0952 70.6067C73.2421 69.3019 73.291 67.9971 73.3645 66.6184H75.5676V109.16H73.4379C73.2666 107.264 73.1442 105.418 72.9483 103.571C72.5567 100.125 71.6509 96.8011 70.0353 93.7483C69.4233 92.6159 68.64 91.508 67.6608 90.671C66.853 89.957 65.678 89.3169 64.6254 89.2923C59.9253 89.1446 55.2253 89.2185 50.4518 89.2185V173.07H50.4763Z" fill="black"/>
</g>
<defs>
<clipPath id="clip0_8_2">
<rect width="181" height="268" fill="white"/>
</clipPath>
</defs>
</svg>
